# xmcd
#
# Track frame offsets:
#	150
#	16590
#	30252
#	43045
#	52930
#	64655
#	77582
#	89245
#	99025
#	112092
#	123212
#	133210
#	145782
#	161275
#	171550
#	180727
#	192190
#	209182
#
# Disc length: 2925 seconds
#
# Revision: 0
# Processed by: cddbd v1.4PL0 Copyright (c) Steve Scherf et al.
# Submitted via: audiograbber 1.80
#
DISCID=f20b6b12
DTITLE=Righteous Brothers - The collection
DYEAR=1900
DGENRE=
TTITLE0=Unchained melody
TTITLE1=You're my Soul and Ispiration
TTITLE2=Ebb Tide
TTITLE3=Little latin lupe lu (Medley)
TTITLE4=Island in the Sun
TTITLE5=You don't know what I know
TTITLE6=The Great Pretender
TTITLE7=Let the good Times roll
TTITLE8=Put a little Love in your Heart
TTITLE9=Something You Got
TTITLE10=Justine
TTITLE11=My Prayer
TTITLE12=I just wanna make Love to You
TTITLE13=This little Girl of Mine
TTITLE14=Bye Bye Love
TTITLE15=Stagger Lee
TTITLE16=Just once in My Life
TTITLE17=White Cliffs of Dover
EXTD=
EXTT0=
EXTT1=
EXTT2=
EXTT3=
EXTT4=
EXTT5=
EXTT6=
EXTT7=
EXTT8=
EXTT9=
EXTT10=
EXTT11=
EXTT12=
EXTT13=
EXTT14=
EXTT15=
EXTT16=
EXTT17=
PLAYORDER=
